<svg xmlns="http://www.w3.org/2000/svg" viewBox="0 0 100 100"><defs><style>.cls-1{fill:#c0392b;}.cls-2{fill:#fff;}</style></defs><title>Recurso 9icon</title><g id="Capa_2" data-name="Capa 2"><g id="Capa_4" data-name="Capa 4"><path class="cls-1" d="M89.55,0H10.45A10.44,10.44,0,0,0,0,10.44V68.13A10.44,10.44,0,0,0,10.45,78.57H34.84V98.86a1.14,1.14,0,0,0,1.83.91l28.49-21.2H89.55A10.44,10.44,0,0,0,100,68.13V10.44A10.44,10.44,0,0,0,89.55,0Z"/><path class="cls-2" d="M31.56,17.92a13.83,13.83,0,1,0,0,27.65,15.28,15.28,0,0,0,1.67-.1,41.37,41.37,0,0,1-3.75,13.67A1.07,1.07,0,0,0,31,60.47C44.32,51.76,45.4,40,45.4,31.75A13.84,13.84,0,0,0,31.56,17.92Z"/><path class="cls-2" d="M65.87,17.92a13.83,13.83,0,1,0,0,27.65,15.43,15.43,0,0,0,1.67-.1,41.86,41.86,0,0,1-3.75,13.67,1.06,1.06,0,0,0,1.55,1.33C78.63,51.76,79.7,40,79.7,31.75A13.83,13.83,0,0,0,65.87,17.92Z"/></g></g></svg>